<svg width="22" height="21" viewBox="0 0 22 21" fill="none" xmlns="http://www.w3.org/2000/svg">
<path fill-rule="evenodd" clip-rule="evenodd" d="M18.6087 3.07562C16.7076 1.1742 14.0853 0 11.1842 0C8.28304 0 5.66089 1.1742 3.7597 3.07557C1.8585 4.97685 0.684082 7.59887 0.684082 10.5C0.684082 13.4011 1.8585 16.0233 3.7597 17.9245C5.66089 19.8259 8.28299 21 11.1842 21C14.0853 21 16.7076 19.8259 18.6087 17.9245C20.5099 16.0233 21.6845 13.4011 21.6845 10.5C21.6845 7.59891 20.51 4.9769 18.6087 3.07562ZM18.0333 17.3489C16.2775 19.0991 13.8586 20.1804 11.1842 20.1804C8.50986 20.1804 6.09108 19.0991 4.34109 17.3489C2.59096 15.5933 1.50381 13.1746 1.50381 10.5001C1.50381 7.82569 2.59096 5.407 4.34109 3.65701C6.09108 1.90701 8.50986 0.819636 11.1842 0.819636C13.8586 0.819636 16.2775 1.90701 18.0333 3.65701C19.7833 5.407 20.8647 7.82569 20.8647 10.5001C20.8647 13.1746 19.7833 15.5933 18.0333 17.3489Z" fill="url(#paint0_linear_2393_653)"/>
<path fill-rule="evenodd" clip-rule="evenodd" d="M12.0612 7.49434C12.0612 7.08152 12.2598 6.91159 12.4578 6.91159H13.7242V5.02979H12.004C10.161 5.02979 9.69802 6.50587 9.69802 7.3897V8.22448H8.64771V10.3251H9.69802V15.8392H12.0612V10.3251H13.4925L13.5623 9.50446L13.6903 8.22448H12.0612V7.49434Z" fill="url(#paint1_linear_2393_653)"/>
<defs>
<linearGradient id="paint0_linear_2393_653" x1="21.3093" y1="13.4998" x2="-18.3472" y2="13.4998" gradientUnits="userSpaceOnUse">
<stop stop-color="#B6B6B6"/>
<stop offset="1" stop-color="#B6B6B6" stop-opacity="0"/>
</linearGradient>
<linearGradient id="paint1_linear_2393_653" x1="13.6335" y1="11.9786" x2="4.04721" y2="11.9786" gradientUnits="userSpaceOnUse">
<stop stop-color="#B6B6B6"/>
<stop offset="1" stop-color="#B6B6B6" stop-opacity="0"/>
</linearGradient>
</defs>
</svg>
