<svg width="23" height="23" viewBox="0 0 23 23" fill="none" xmlns="http://www.w3.org/2000/svg">
<path fill-rule="evenodd" clip-rule="evenodd" d="M19.0239 3.37313C17.0164 1.36537 14.2475 0.125488 11.1841 0.125488C8.12066 0.125488 5.35186 1.36537 3.34432 3.37309C1.33679 5.38071 0.0966797 8.14938 0.0966797 11.2128C0.0966797 14.2761 1.33679 17.045 3.34432 19.0526C5.35186 21.0603 8.12062 22.3001 11.1841 22.3001C14.2475 22.3001 17.0164 21.0603 19.0239 19.0526C21.0314 17.045 22.2717 14.2761 22.2717 11.2128C22.2717 8.14943 21.0315 5.38076 19.0239 3.37313ZM18.4163 18.4448C16.5623 20.2929 14.008 21.4347 11.1841 21.4347C8.36017 21.4347 5.80611 20.2929 3.95823 18.4448C2.11022 16.5909 0.962253 14.037 0.962253 11.2129C0.962253 8.38889 2.11022 5.83492 3.95823 3.98704C5.80611 2.13917 8.36017 0.990969 11.1841 0.990969C14.008 0.990969 16.5623 2.13917 18.4163 3.98704C20.2641 5.83492 21.406 8.38889 21.406 11.2129C21.406 14.037 20.2641 16.5909 18.4163 18.4448Z" fill="url(#paint0_linear_2393_653)"/>
<path fill-rule="evenodd" clip-rule="evenodd" d="M12.1103 8.03893C12.1103 7.60302 12.32 7.42358 12.529 7.42358H13.8663V5.43652H12.0499C10.1038 5.43652 9.61492 6.99517 9.61492 7.92844V8.80991H8.50586V11.028H9.61492V16.8506H12.1103V11.028H13.6216L13.6953 10.1615L13.8305 8.80991H12.1103V8.03893Z" fill="url(#paint1_linear_2393_653)"/>
<defs>
<linearGradient id="paint0_linear_2393_653" x1="21.8756" y1="14.3804" x2="-19.9991" y2="14.3804" gradientUnits="userSpaceOnUse">
<stop stop-color="#B6B6B6"/>
<stop offset="1" stop-color="#B6B6B6" stop-opacity="0"/>
</linearGradient>
<linearGradient id="paint1_linear_2393_653" x1="13.7705" y1="12.774" x2="3.64804" y2="12.774" gradientUnits="userSpaceOnUse">
<stop stop-color="#B6B6B6"/>
<stop offset="1" stop-color="#B6B6B6" stop-opacity="0"/>
</linearGradient>
</defs>
</svg>
