<svg width="12" height="12" viewBox="0 0 12 12" fill="none" xmlns="http://www.w3.org/2000/svg">
<path d="M8.79919 5.56452L4.54113 2.97581C4.15887 2.7629 3.67742 3.03629 3.67742 3.48387V8.51613C3.67742 8.96129 4.15645 9.2371 4.54113 9.02419L8.79919 6.58065C9.19597 6.36048 9.19597 5.7871 8.79919 5.56452ZM12 6C12 2.68548 9.31452 0 6 0C2.68548 0 0 2.68548 0 6C0 9.31452 2.68548 12 6 12C9.31452 12 12 9.31452 12 6ZM1.16129 6C1.16129 3.32661 3.32661 1.16129 6 1.16129C8.67339 1.16129 10.8387 3.32661 10.8387 6C10.8387 8.67339 8.67339 10.8387 6 10.8387C3.32661 10.8387 1.16129 8.67339 1.16129 6Z" fill="url(#paint0_linear_2036_9)"/>
<defs>
<linearGradient id="paint0_linear_2036_9" x1="12" y1="1" x2="2" y2="8.5" gradientUnits="userSpaceOnUse">
<stop stop-color="white"/>
<stop offset="1" stop-color="#B6B6B6"/>
</linearGradient>
</defs>
</svg>
